<svg xmlns="http://www.w3.org/2000/svg" xmlns:xlink="http://www.w3.org/1999/xlink" viewBox="0 0 186.5 91.22"><defs><linearGradient id="a" x1="382.95" y1="431.61" x2="382.95" y2="340.39" gradientTransform="matrix(1, 0, 0, -1, 0, 770)" gradientUnits="userSpaceOnUse"><stop offset="0" stop-color="#00aeef"/><stop offset="0.21" stop-color="#0097dc"/><stop offset="0.52" stop-color="#007cc5"/><stop offset="0.79" stop-color="#006cb8"/><stop offset="1" stop-color="#0066b3"/></linearGradient></defs><title>SAP logo - Brandlogos.net</title><path d="M290.75,429.61h93.2l91.21-91.22H290.75v91.22" transform="translate(-290.75 -338.39)" style="fill:url(#a)"/><path d="M400.18,356.63H382l.06,42.83-15.86-42.85H350.45L336.91,392.4c-1.44-9.11-10.85-12.25-18.26-14.6-4.89-1.57-10.08-3.88-10-6.44,0-2.1,2.78-4,8.22-3.75,3.65.2,6.87.49,13.28,3.59l6.3-11a49,49,0,0,0-20.56-4.86h0c-7.73,0-14.17,2.5-18.16,6.63a15.3,15.3,0,0,0-4.34,10.59,14.22,14.22,0,0,0,6.23,12.68c3.62,2.66,8.26,4.38,12.35,5.64,5,1.56,9.15,2.92,9.1,5.81a4.28,4.28,0,0,1-1.2,2.83c-1.26,1.3-3.18,1.78-5.85,1.84-5.14.11-9-.7-15-4.29l-5.61,11.13a39,39,0,0,0,19.83,5.18h1.65c6.37-.12,11.54-1.64,15.65-4.95.24-.19.45-.38.66-.57l-.69,3.55,15.37,0,2.76-7.06a30.15,30.15,0,0,0,9.69,1.54,30.47,30.47,0,0,0,9.46-1.45l1.92,7,27.57,0,.07-16.09h5.87c14.18,0,22.56-7.22,22.56-19.32C425.68,362.5,417.53,356.63,400.18,356.63Zm-42,36.61a16.48,16.48,0,0,1-5.81-1l5.75-18.15h.11l5.66,18.2a17,17,0,0,1-5.7,1Zm43-10.43h-4V368.19h4c5.33,0,9.59,1.78,9.59,7.22,0,5.64-4.26,7.41-9.59,7.41" transform="translate(-290.75 -338.39)" style="fill:#fff"/><path d="M290.75,338.39h186.5v91.22H290.75Z" transform="translate(-290.75 -338.39)" style="fill:none"/></svg>